<svg width="22" height="18" viewBox="0 0 22 18" fill="none" xmlns="http://www.w3.org/2000/svg">
<g clip-path="url(#clip0_142_5464)">
<path d="M2.92384 17.4228H17.9155C18.7535 17.4228 19.4038 17.1706 19.8663 16.666C20.3288 16.1614 20.56 15.4046 20.56 14.3955V3.61426C20.56 2.61165 20.3163 1.85807 19.829 1.35352C19.3417 0.848958 18.6108 0.59668 17.6362 0.59668H2.6445C1.80645 0.59668 1.15619 0.848958 0.693714 1.35352C0.231238 1.85807 0 2.61165 0 3.61426V14.3955C0 15.4046 0.243654 16.1614 0.730961 16.666C1.21827 17.1706 1.94923 17.4228 2.92384 17.4228ZM2.86797 15.9287C2.40239 15.9287 2.04545 15.8001 1.79714 15.5429C1.54883 15.2858 1.42467 14.9033 1.42467 14.3955V3.61426C1.42467 3.11296 1.54883 2.73373 1.79714 2.47656C2.04545 2.2194 2.40239 2.09082 2.86797 2.09082H17.692C18.1514 2.09082 18.5068 2.2194 18.7583 2.47656C19.0097 2.73373 19.1354 3.11622 19.1354 3.62403V14.4052C19.1354 14.9066 19.0097 15.2858 18.7583 15.5429C18.5068 15.8001 18.1514 15.9287 17.692 15.9287H2.86797ZM10.2986 11.6123C10.6277 11.6123 10.9505 11.5374 11.267 11.3876C11.5837 11.2379 11.9064 10.9938 12.2354 10.6552L19.7964 2.86231L18.828 1.83692L11.4253 9.50293C11.2205 9.71126 11.0265 9.86426 10.8434 9.96192C10.6602 10.0596 10.4787 10.1084 10.2986 10.1084C10.1124 10.1084 9.9277 10.0579 9.74456 9.95703C9.56145 9.85612 9.37057 9.70476 9.17192 9.50293L1.73196 1.79785L0.754239 2.82324L8.36181 10.6552C8.68461 10.9938 9.00586 11.2379 9.32556 11.3876C9.64526 11.5374 9.96962 11.6123 10.2986 11.6123ZM18.7349 16.1435L19.7034 15.1181L13.6787 8.87793L12.7103 9.89356L18.7349 16.1435ZM0.884601 15.1279L1.85301 16.1533L7.88692 9.89356L6.9092 8.87793L0.884601 15.1279Z" fill="#FBFBFB"/>
</g>
<defs>
<clipPath id="clip0_142_5464">
<rect width="21.5625" height="16.8457" fill="white" transform="translate(0 0.577148)"/>
</clipPath>
</defs>
</svg>
