<svg width="197" height="58" viewBox="0 0 197 58" fill="none" xmlns="http://www.w3.org/2000/svg">
<path fill-rule="evenodd" clip-rule="evenodd" d="M90.7967 42.6407L85.2772 50.8247C85.2772 50.8247 81.2803 55.2021 75.5706 53.1086C71.7243 51.6983 70.5553 50.8925 69.5039 50.1677C68.9944 49.8166 68.5126 49.4844 67.7672 49.1117C65.4833 47.9698 64.151 42.6407 64.151 42.6407H41.3118C36.9343 42.6407 35.6021 39.0244 41.3118 37.1212C45.2138 35.8206 49.1157 36.2976 52.6532 36.73C54.2922 36.9304 55.853 37.1212 57.2993 37.1212C61.8671 37.1212 66.2446 32.7436 57.2993 30.4598C51.4126 28.9568 44.4544 29.6792 39.5707 30.1862C37.0331 30.4497 35.0556 30.655 34.0794 30.4598C31.2245 29.8889 29.7019 27.4145 34.0794 24.9403C36.6245 23.5019 38.6549 23.736 40.9186 23.9971C42.5486 24.1851 44.2995 24.3871 46.4506 23.9887C51.5895 23.037 49.3055 17.8983 46.4506 17.8983H4.38855C-0.369602 17.8983 -2.4632 13.3305 4.38855 12.5691C11.2403 11.8077 65.293 12.5691 65.293 12.5691C65.293 12.5691 70.4318 8.95292 65.293 6.09803C62.7785 4.70109 57.1197 5.35478 51.0815 6.05229C44.7796 6.78027 38.0645 7.55598 34.0794 6.09803C26.2761 3.24314 31.9859 -0.182735 34.0794 0.00759098C36.173 0.197917 103.358 0.197981 118.775 0.00759098C134.191 -0.182799 160.837 15.8047 160.837 15.8047C160.837 15.8047 175.492 17.5252 177.776 17.8983C180.06 18.2713 192.061 21.9027 192.812 23.0371C193.562 24.1714 192.812 27.6049 192.812 27.6049C192.812 27.6049 196.248 29.5157 196.428 30.4598C196.607 31.4038 192.823 41.8869 191.479 42.6407C190.136 43.3944 180.06 42.6407 180.06 42.6407L174.35 50.8247L163.692 53.1086L154.175 47.9698L151.891 42.6407H134.191H116.3H96.8871H90.7967ZM75.625 15.0798C75.6081 15.0077 75.5904 14.9322 75.5706 14.853C75.1899 13.3304 82.4223 5.71731 90.7967 4.57542C99.1711 3.43352 115.158 3.05275 121.63 4.57542C128.101 6.09809 153.795 16.7563 145.801 16.7563H119.155C119.155 16.7563 91.1773 16.9467 83.374 16.7563C75.9761 16.5758 75.9338 16.3955 75.625 15.0798Z" fill="#096EF9"/>
<ellipse cx="79.1743" cy="42.252" rx="15.2261" ry="15.2261" fill="#2D2D39"/>
<ellipse cx="165.96" cy="42.7762" rx="15.2261" ry="15.2261" fill="#2D2D39"/>
<ellipse cx="165.66" cy="42.66" rx="9.65998" ry="9.66" fill="#FBFBFB"/>
<ellipse cx="78.66" cy="41.66" rx="9.65998" ry="9.66" fill="#FBFBFB"/>
</svg>
