<svg width="202" height="28" viewBox="0 0 202 28" fill="none" xmlns="http://www.w3.org/2000/svg">
<path d="M7.12109 0.105469C6.92188 0.75 6.82227 1.35937 6.82227 1.93359C6.82227 2.90625 6.99219 4.3125 7.33203 6.15234C8.76172 13.3359 9.59375 17.4844 9.82812 18.5977C10.3203 20.8945 10.6191 22.2891 10.7246 22.7812C10.8418 23.2617 10.9473 23.7246 11.041 24.1699C13.2207 21.5801 14.7266 18.0469 15.5586 13.5703C15.8633 11.9297 16.0156 10.3828 16.0156 8.92969C16.0156 7.47656 15.9863 6.35156 15.9277 5.55469C15.8691 4.75781 15.7695 4.03125 15.6289 3.375C15.3477 2.0625 14.9023 0.966797 14.293 0.0878906H20.4277C20.1816 0.791016 20.0527 1.49414 20.041 2.19727C20.0293 2.90039 20.0059 3.97266 19.9707 5.41406C19.9355 6.84375 19.7539 8.54883 19.4258 10.5293C19.0977 12.5098 18.6875 14.2793 18.1953 15.8379C17.7031 17.3965 17.1582 18.7676 16.5605 19.9512C15.9629 21.1348 15.3652 22.1719 14.7676 23.0625C14.1699 23.9531 13.6016 24.7148 13.0625 25.3477L11.6914 27H6.1543C6.33008 26.5547 6.41797 26.1211 6.41797 25.6992C6.41797 25.0078 6.32422 23.9941 6.13672 22.6582C4.13281 9.27539 2.41602 1.75781 0.986328 0.105469H7.12109ZM23.2227 27C23.7617 25.1484 24.0312 21.9668 24.0312 17.4551C24.0312 14.2441 23.7734 12.0527 23.2578 10.8809C23.0469 10.4004 22.6719 9.85547 22.1328 9.24609H28.373C28.1621 9.98438 27.9922 10.998 27.8633 12.2871C28.9648 10.9043 30.5 9.92578 32.4688 9.35156C33.3125 9.10547 33.9277 8.71875 34.3145 8.19141C34.7012 9.11719 34.8945 9.91406 34.8945 10.582C34.8945 11.25 34.8594 11.8711 34.7891 12.4453C34.7188 13.0078 34.6133 13.5586 34.4727 14.0977C34.168 15.2578 33.7637 16.1602 33.2598 16.8047C32.8262 14.5195 32.1523 13.1836 31.2383 12.7969C30.1836 12.3398 29.1523 12.9609 28.1445 14.6602C27.9336 15.0117 27.7578 15.3867 27.6172 15.7852C27.6055 16.0547 27.5996 16.3301 27.5996 16.6113C27.5996 16.8926 27.5996 17.1738 27.5996 17.4551C27.5996 21.9668 27.8691 25.1484 28.4082 27H23.2227ZM45.0195 10.6523C43.9648 10.6523 43.2031 11.1797 42.7344 12.2344C42.2773 13.2891 42.0488 15.0645 42.0488 17.5605C42.0488 22.916 43.0391 25.5938 45.0195 25.5938C46.0742 25.5938 46.8301 24.8789 47.2871 23.4492C47.7559 22.0195 47.9902 20.0566 47.9902 17.5605C47.9902 15.0645 47.7559 13.2891 47.2871 12.2344C46.8301 11.1797 46.0742 10.6523 45.0195 10.6523ZM37.6191 16.8926C37.6191 11.5605 40.0859 8.89453 45.0195 8.89453C49.9531 8.89453 52.4199 11.5605 52.4199 16.8926C52.4199 20.127 51.7402 22.6875 50.3809 24.5742C49.0566 26.4258 47.2695 27.3516 45.0195 27.3516C42.7695 27.3516 40.9824 26.4258 39.6582 24.5742C38.2988 22.6875 37.6191 20.127 37.6191 16.8926ZM64.4258 10.6523C63.3711 10.6523 62.6094 11.1797 62.1406 12.2344C61.6836 13.2891 61.4551 15.0645 61.4551 17.5605C61.4551 22.916 62.4453 25.5938 64.4258 25.5938C65.4805 25.5938 66.2363 24.8789 66.6934 23.4492C67.1621 22.0195 67.3965 20.0566 67.3965 17.5605C67.3965 15.0645 67.1621 13.2891 66.6934 12.2344C66.2363 11.1797 65.4805 10.6523 64.4258 10.6523ZM57.0254 16.8926C57.0254 11.5605 59.4922 8.89453 64.4258 8.89453C69.3594 8.89453 71.8262 11.5605 71.8262 16.8926C71.8262 20.127 71.1465 22.6875 69.7871 24.5742C68.4629 26.4258 66.6758 27.3516 64.4258 27.3516C62.1758 27.3516 60.3887 26.4258 59.0645 24.5742C57.7051 22.6875 57.0254 20.127 57.0254 16.8926ZM76.6777 27C77.2168 25.1484 77.4863 21.9668 77.4863 17.4551C77.4863 14.2441 77.2051 12.0527 76.6426 10.8809C76.502 10.5879 76.3438 10.3125 76.168 10.0547L75.5879 9.24609H81.6875C81.5117 9.9375 81.3945 10.4883 81.3359 10.8984L81.2129 11.9531C82.5723 9.91406 84.3008 8.89453 86.3984 8.89453C88.5078 8.89453 89.873 10.0371 90.4941 12.3223C91.4199 10.7402 92.6445 9.69141 94.168 9.17578C94.707 8.98828 95.3105 8.89453 95.9785 8.89453C96.6582 8.89453 97.2676 9.04102 97.8066 9.33398C98.3574 9.61523 98.8203 10.0195 99.1953 10.5469C99.9336 11.6133 100.303 13.0723 100.303 14.9238V16.8047C100.303 20.3906 100.35 22.6406 100.443 23.5547C100.549 24.457 100.625 25.0547 100.672 25.3477C100.742 25.8633 100.859 26.4141 101.023 27H95.8379C96.3535 25.2305 96.6113 22.0488 96.6113 17.4551C96.6113 15.5918 96.5176 14.3438 96.3301 13.7109C96.1426 13.0664 95.8965 12.6035 95.5918 12.3223C95.2988 12.0293 94.8945 11.8828 94.3789 11.8828C92.8672 11.8828 91.666 12.7734 90.7754 14.5547V16.8047C90.7754 20.3906 90.8223 22.6406 90.916 23.5547C91.0215 24.457 91.0977 25.0547 91.1445 25.3477C91.2148 25.8633 91.332 26.4141 91.4961 27H86.3105C86.8379 25.1953 87.1016 22.0137 87.1016 17.4551C87.1016 15.5449 87.0078 14.2852 86.8203 13.6758C86.6328 13.0547 86.3926 12.6035 86.0996 12.3223C85.8066 12.0293 85.4023 11.8828 84.8867 11.8828C84.3828 11.8828 83.9258 11.9824 83.5156 12.1816C83.1055 12.3809 82.7363 12.6445 82.4082 12.9727C81.7871 13.582 81.3008 14.3672 80.9492 15.3281C80.9258 15.668 80.9141 16.0195 80.9141 16.3828V17.4551C80.9141 21.9668 81.1836 25.1484 81.7227 27H76.6777ZM90.1953 16.1016L90.125 16.418L90.1953 16.1016Z" fill="#096EF9"/>
<path d="M109.496 9.24609C109.285 9.76172 109.18 10.3301 109.18 10.9512C109.18 11.5605 109.227 12.1055 109.32 12.5859C109.414 13.0547 109.543 13.6055 109.707 14.2383L111.605 20.9883L112.273 23.1504C112.965 21.0762 113.422 19.6758 113.645 18.9492L114.277 16.8047C114.969 14.4492 115.314 12.9902 115.314 12.4277C115.314 11.8652 115.285 11.4551 115.227 11.1973C115.18 10.9277 115.109 10.6875 115.016 10.4766C114.898 10.1602 114.67 9.75 114.33 9.24609H120.729C119.861 10.4414 119.281 11.3379 118.988 11.9355L118.338 13.2715C118.232 13.4824 118.086 13.7871 117.898 14.1855C115.602 19.4238 114.453 22.9336 114.453 24.7148C114.453 25.5234 114.605 26.2852 114.91 27H108.582C108.863 26.5547 109.027 26.1387 109.074 25.752C109.133 25.3535 109.162 24.9492 109.162 24.5391C109.162 24.1172 109.057 23.5137 108.846 22.7285C108.635 21.9434 108.359 21.0527 108.02 20.0566C107.68 19.0605 107.287 18.0117 106.842 16.9102C106.408 15.7969 105.963 14.7363 105.506 13.7285C104.475 11.4668 103.643 9.97266 103.01 9.24609H109.496ZM123.84 27C124.379 25.1484 124.648 21.9668 124.648 17.4551C124.648 14.2441 124.391 12.0527 123.875 10.8809C123.664 10.4004 123.289 9.85547 122.75 9.24609H128.99C128.779 9.98438 128.609 10.998 128.48 12.2871C129.582 10.9043 131.117 9.92578 133.086 9.35156C133.93 9.10547 134.545 8.71875 134.932 8.19141C135.318 9.11719 135.512 9.91406 135.512 10.582C135.512 11.25 135.477 11.8711 135.406 12.4453C135.336 13.0078 135.23 13.5586 135.09 14.0977C134.785 15.2578 134.381 16.1602 133.877 16.8047C133.443 14.5195 132.77 13.1836 131.855 12.7969C130.801 12.3398 129.77 12.9609 128.762 14.6602C128.551 15.0117 128.375 15.3867 128.234 15.7852C128.223 16.0547 128.217 16.3301 128.217 16.6113C128.217 16.8926 128.217 17.1738 128.217 17.4551C128.217 21.9668 128.486 25.1484 129.025 27H123.84ZM145.637 10.6523C144.582 10.6523 143.82 11.1797 143.352 12.2344C142.895 13.2891 142.666 15.0645 142.666 17.5605C142.666 22.916 143.656 25.5938 145.637 25.5938C146.691 25.5938 147.447 24.8789 147.904 23.4492C148.373 22.0195 148.607 20.0566 148.607 17.5605C148.607 15.0645 148.373 13.2891 147.904 12.2344C147.447 11.1797 146.691 10.6523 145.637 10.6523ZM138.236 16.8926C138.236 11.5605 140.703 8.89453 145.637 8.89453C150.57 8.89453 153.037 11.5605 153.037 16.8926C153.037 20.127 152.357 22.6875 150.998 24.5742C149.674 26.4258 147.887 27.3516 145.637 27.3516C143.387 27.3516 141.6 26.4258 140.275 24.5742C138.916 22.6875 138.236 20.127 138.236 16.8926ZM165.043 10.6523C163.988 10.6523 163.227 11.1797 162.758 12.2344C162.301 13.2891 162.072 15.0645 162.072 17.5605C162.072 22.916 163.062 25.5938 165.043 25.5938C166.098 25.5938 166.854 24.8789 167.311 23.4492C167.779 22.0195 168.014 20.0566 168.014 17.5605C168.014 15.0645 167.779 13.2891 167.311 12.2344C166.854 11.1797 166.098 10.6523 165.043 10.6523ZM157.643 16.8926C157.643 11.5605 160.109 8.89453 165.043 8.89453C169.977 8.89453 172.443 11.5605 172.443 16.8926C172.443 20.127 171.764 22.6875 170.404 24.5742C169.08 26.4258 167.293 27.3516 165.043 27.3516C162.793 27.3516 161.006 26.4258 159.682 24.5742C158.322 22.6875 157.643 20.127 157.643 16.8926ZM177.295 27C177.834 25.1484 178.104 21.9668 178.104 17.4551C178.104 14.2441 177.822 12.0527 177.26 10.8809C177.119 10.5879 176.961 10.3125 176.785 10.0547L176.205 9.24609H182.305C182.129 9.9375 182.012 10.4883 181.953 10.8984L181.83 11.9531C183.189 9.91406 184.918 8.89453 187.016 8.89453C189.125 8.89453 190.49 10.0371 191.111 12.3223C192.037 10.7402 193.262 9.69141 194.785 9.17578C195.324 8.98828 195.928 8.89453 196.596 8.89453C197.275 8.89453 197.885 9.04102 198.424 9.33398C198.975 9.61523 199.438 10.0195 199.812 10.5469C200.551 11.6133 200.92 13.0723 200.92 14.9238V16.8047C200.92 20.3906 200.967 22.6406 201.061 23.5547C201.166 24.457 201.242 25.0547 201.289 25.3477C201.359 25.8633 201.477 26.4141 201.641 27H196.455C196.971 25.2305 197.229 22.0488 197.229 17.4551C197.229 15.5918 197.135 14.3438 196.947 13.7109C196.76 13.0664 196.514 12.6035 196.209 12.3223C195.916 12.0293 195.512 11.8828 194.996 11.8828C193.484 11.8828 192.283 12.7734 191.393 14.5547V16.8047C191.393 20.3906 191.439 22.6406 191.533 23.5547C191.639 24.457 191.715 25.0547 191.762 25.3477C191.832 25.8633 191.949 26.4141 192.113 27H186.928C187.455 25.1953 187.719 22.0137 187.719 17.4551C187.719 15.5449 187.625 14.2852 187.438 13.6758C187.25 13.0547 187.01 12.6035 186.717 12.3223C186.424 12.0293 186.02 11.8828 185.504 11.8828C185 11.8828 184.543 11.9824 184.133 12.1816C183.723 12.3809 183.354 12.6445 183.025 12.9727C182.404 13.582 181.918 14.3672 181.566 15.3281C181.543 15.668 181.531 16.0195 181.531 16.3828V17.4551C181.531 21.9668 181.801 25.1484 182.34 27H177.295ZM190.812 16.1016L190.742 16.418L190.812 16.1016Z" fill="white"/>
</svg>
