<svg width="18" height="20" viewBox="0 0 18 20" fill="none" xmlns="http://www.w3.org/2000/svg">
<g clip-path="url(#clip0_142_5470)">
<path d="M2.95601 19.5222H15.044C16.0294 19.5222 16.7684 19.3314 17.261 18.9498C17.7537 18.5681 18 17.9692 18 17.1529V10.2937C18 9.49066 17.7537 8.89831 17.261 8.51669C16.7684 8.13508 16.0294 7.94427 15.044 7.94427H2.95601C1.97068 7.94427 1.23167 8.13508 0.739004 8.51669C0.246335 8.89831 0 9.49066 0 10.2937V17.1529C0 17.9692 0.246335 18.5681 0.739004 18.9498C1.23167 19.3314 1.97068 19.5222 2.95601 19.5222ZM3.03519 18.0289C2.72728 18.0289 2.49854 17.9708 2.34897 17.8546C2.19942 17.7386 2.12464 17.5411 2.12464 17.2624V10.1941C2.12464 9.9154 2.19942 9.71961 2.34897 9.60679C2.49854 9.49396 2.72728 9.43755 3.03519 9.43755H14.978C15.286 9.43755 15.5125 9.49396 15.6576 9.60679C15.8028 9.71961 15.8753 9.9154 15.8753 10.1941V17.2624C15.8753 17.5411 15.8028 17.7386 15.6576 17.8546C15.5125 17.9708 15.286 18.0289 14.978 18.0289H3.03519ZM2.28299 8.73073H4.40763V5.35591C4.40763 4.51967 4.61877 3.81783 5.04106 3.25038C5.46335 2.68294 6.0242 2.25486 6.72362 1.96616C7.42303 1.67746 8.18182 1.53311 9.00001 1.53311C9.82699 1.53311 10.588 1.67746 11.283 1.96616C11.978 2.25486 12.5367 2.68294 12.959 3.25038C13.3812 3.81783 13.5924 4.51967 13.5924 5.35591V8.73073H15.7171V5.56496C15.7171 4.62918 15.5323 3.81285 15.1628 3.11598C14.7932 2.41912 14.2917 1.84006 13.6583 1.3788C13.0249 0.91754 12.3057 0.572425 11.5007 0.343455C10.6958 0.114485 9.86218 0 9.00001 0C8.13783 0 7.30645 0.114485 6.50587 0.343455C5.70528 0.572425 4.98828 0.91754 4.35485 1.3788C3.72141 1.84006 3.21774 2.41912 2.84384 3.11598C2.46994 3.81285 2.28299 4.62918 2.28299 5.56496V8.73073Z" fill="#FBFBFB"/>
</g>
<defs>
<clipPath id="clip0_142_5470">
<rect width="18" height="20" fill="white"/>
</clipPath>
</defs>
</svg>
