<svg width="22" height="22" viewBox="0 0 22 22" fill="none" xmlns="http://www.w3.org/2000/svg">
<g clip-path="url(#clip0_142_5750)">
<path d="M6.00586 21.7276C6.24675 21.7276 6.4681 21.6625 6.66992 21.5323C6.87175 21.4021 7.11914 21.2067 7.41211 20.9463L10.7812 17.9483H17.0508C18.0209 17.9483 18.8379 17.7741 19.502 17.4258C20.166 17.0775 20.6689 16.5713 21.0107 15.9073C21.3525 15.2432 21.5234 14.4326 21.5234 13.4756V5.99512C21.5234 5.03809 21.3525 4.22754 21.0107 3.56348C20.6689 2.89941 20.166 2.39323 19.502 2.04492C18.8379 1.69661 18.0209 1.52246 17.0508 1.52246H4.47266C3.50261 1.52246 2.68555 1.69661 2.02148 2.04492C1.35742 2.39323 0.854492 2.89941 0.512695 3.56348C0.170898 4.22754 0 5.03809 0 5.99512V13.4756C0 14.4326 0.170898 15.2432 0.512695 15.9073C0.854492 16.5713 1.35742 17.0775 2.02148 17.4258C2.68555 17.7741 3.50261 17.9483 4.47266 17.9483H4.94141V20.4873C4.94141 20.8649 5.03418 21.166 5.21973 21.3907C5.40528 21.6153 5.66732 21.7276 6.00586 21.7276ZM6.40625 19.9405V17.1084C6.40625 16.8414 6.35091 16.6526 6.24023 16.542C6.12956 16.4313 5.94076 16.376 5.67383 16.376H4.47266C3.48307 16.376 2.75228 16.1302 2.28027 15.6387C1.80827 15.1471 1.57227 14.4229 1.57227 13.4659V5.99512C1.57227 5.0446 1.80827 4.32357 2.28027 3.83203C2.75228 3.3405 3.48307 3.09473 4.47266 3.09473H17.0508C18.0339 3.09473 18.763 3.3405 19.2383 3.83203C19.7136 4.32357 19.9512 5.0446 19.9512 5.99512V13.4659C19.9512 14.4229 19.7136 15.1471 19.2383 15.6387C18.763 16.1302 18.0339 16.376 17.0508 16.376H10.7227C10.4492 16.376 10.2279 16.4053 10.0586 16.4639C9.88933 16.5225 9.71354 16.6462 9.53125 16.835L6.40625 19.9405ZM5.98633 11.1319C6.37696 11.1319 6.70736 10.9951 6.97754 10.7217C7.24772 10.4483 7.38281 10.1195 7.38281 9.73535C7.38281 9.35124 7.24772 9.02246 6.97754 8.74902C6.70736 8.47559 6.37696 8.33887 5.98633 8.33887C5.60222 8.33887 5.27344 8.47559 5 8.74902C4.72656 9.02246 4.58984 9.35124 4.58984 9.73535C4.58984 10.1195 4.72656 10.4483 5 10.7217C5.27344 10.9951 5.60222 11.1319 5.98633 11.1319ZM10.7715 11.1319C11.1556 11.1319 11.4844 10.9951 11.7578 10.7217C12.0313 10.4483 12.168 10.1195 12.168 9.73535C12.168 9.35124 12.0313 9.02246 11.7578 8.74902C11.4844 8.47559 11.1556 8.33887 10.7715 8.33887C10.3808 8.33887 10.0488 8.47559 9.77539 8.74902C9.50195 9.02246 9.36523 9.35124 9.36523 9.73535C9.36523 10.1195 9.50195 10.4483 9.77539 10.7217C10.0488 10.9951 10.3808 11.1319 10.7715 11.1319ZM15.5469 11.1319C15.931 11.1319 16.2597 10.9951 16.5332 10.7217C16.8067 10.4483 16.9434 10.1195 16.9434 9.73535C16.9434 9.35124 16.8067 9.02246 16.5332 8.74902C16.2597 8.47559 15.931 8.33887 15.5469 8.33887C15.1628 8.33887 14.834 8.47559 14.5605 8.74902C14.2871 9.02246 14.1504 9.35124 14.1504 9.73535C14.1504 10.1195 14.2871 10.4483 14.5605 10.7217C14.834 10.9951 15.1628 11.1319 15.5469 11.1319Z" fill="#FBFBFB"/>
</g>
<defs>
<clipPath id="clip0_142_5750">
<rect width="21.5234" height="21.4551" fill="white" transform="translate(0 0.272461)"/>
</clipPath>
</defs>
</svg>
